<?xml version="1.0" encoding="utf-8"?>
<!-- Generator: Adobe Illustrator 28.1.0, SVG Export Plug-In . SVG Version: 6.00 Build 0)  -->
<svg version="1.1" id="Layer_1" xmlns="http://www.w3.org/2000/svg" xmlns:xlink="http://www.w3.org/1999/xlink" x="0px" y="0px"
	 viewBox="0 0 100 100" style="enable-background:new 0 0 100 100;" xml:space="preserve">
<style type="text/css">
	.st0{fill:#F89521;}
</style>
<g>
	<path class="st0" d="M50,53.81c9.43,0,17.1,7.67,17.1,17.1V88H32.9V70.9C32.9,61.48,40.57,53.81,50,53.81 M50,41.81
		c-16.07,0-29.1,13.02-29.1,29.1V100H79.1V70.9C79.1,54.83,66.06,41.81,50,41.81L50,41.81z"/>
</g>
<g>
	<path class="st0" d="M49.99,12c3.37,0,6.1,2.74,6.1,6.1s-2.74,6.1-6.1,6.1s-6.1-2.74-6.1-6.1S46.63,12,49.99,12 M49.99,0
		c-10,0-18.1,8.11-18.1,18.1s8.11,18.1,18.1,18.1s18.1-8.11,18.1-18.1S59.99,0,49.99,0L49.99,0z"/>
</g>
</svg>
