<?xml version="1.0" encoding="UTF-8"?>
<svg id="Layer_1" data-name="Layer 1" xmlns="http://www.w3.org/2000/svg" viewBox="0 0 550.65 780.34">
  <defs>
    <style>
      .cls-1 {
        fill: #f8941f;
      }

      .cls-2 {
        fill: #fff;
        stroke: #f8941f;
        stroke-linecap: round;
        stroke-miterlimit: 10;
        stroke-width: 30px;
      }
    </style>
  </defs>
  <path class="cls-1" d="m142.42,30c41.59,0,79.62,22.75,99.26,59.36,14.2,26.48,17.24,56.91,8.56,85.68-8.68,28.77-28.05,52.43-54.53,66.63-16.33,8.76-34.67,13.38-53.04,13.38-41.6,0-79.63-22.75-99.27-59.36-14.2-26.48-17.24-56.91-8.56-85.68,8.68-28.77,28.05-52.43,54.53-66.63,16.32-8.75,34.67-13.38,53.05-13.38h0M142.4,0c-22.73,0-45.79,5.45-67.22,16.94C5.83,54.14-20.25,140.51,16.94,209.87c25.7,47.93,74.88,75.18,125.71,75.18,22.73,0,45.79-5.45,67.22-16.94,69.36-37.19,95.43-123.57,58.24-192.93C242.41,27.26,193.23,0,142.4,0h0Z"/>
  <path class="cls-1" d="m408.01,525.28c41.59,0,79.62,22.75,99.26,59.36,14.2,26.48,17.24,56.91,8.56,85.68-8.68,28.77-28.05,52.43-54.53,66.63-16.33,8.76-34.67,13.38-53.04,13.38-41.6,0-79.63-22.75-99.27-59.36-14.2-26.48-17.24-56.91-8.56-85.68,8.68-28.77,28.05-52.43,54.53-66.63,16.32-8.75,34.67-13.38,53.05-13.38h0m-.01-30c-22.73,0-45.79,5.45-67.22,16.94-69.36,37.19-95.43,123.57-58.24,192.93,25.7,47.93,74.88,75.18,125.71,75.18,22.73,0,45.79-5.45,67.22-16.94,69.36-37.19,95.43-123.57,58.24-192.93-25.7-47.93-74.88-75.19-125.71-75.18h0Z"/>
  <line class="cls-2" x1="209.87" y1="268.11" x2="340.78" y2="512.23"/>
</svg>